# xmcd CD database file
#
# Track frame offsets:
#	150
#	29652
#	73490
#	92070
#	124327
#	168240
#	200710
#	225647
#	248840
#
# Disc length: 3545 seconds
#
# Revision: 0
# Processed by: cddbd v1.5.2PL0 Copyright (c) Steve Scherf et al.
# Submitted via: CDex 1.70beta2
#
DISCID=840dd709
DTITLE=Michele Bozza - Around
DYEAR=1997
DGENRE=Jazz
TTITLE0=Pegaso
TTITLE1=Along Come Betty
TTITLE2=Pulsar
TTITLE3=Mathilde
TTITLE4=Beatrice
TTITLE5=Around
TTITLE6=Boomerang
TTITLE7=Song For Larry
TTITLE8=Mr S.V.
EXTD=YEAR: 1997
EXTT0=
EXTT1=
EXTT2=
EXTT3=
EXTT4=
EXTT5=
EXTT6=
EXTT7=
EXTT8=
PLAYORDER=
